<svg width="164" height="34" viewBox="0 0 164 34" fill="none" xmlns="http://www.w3.org/2000/svg">
<g clip-path="url(#clip0_12638_17474)">
<rect width="164" height="34" fill="white"/>
<path d="M33.0061 0.994141H1.00307V32.9972H33.0061V0.994141Z" fill="#017F50"/>
<mask id="mask0_12638_17474" style="mask-type:luminance" maskUnits="userSpaceOnUse" x="-7" y="-7" width="172" height="48">
<path d="M164.018 -7H-7V41H164.018V-7Z" fill="white"/>
</mask>
<g mask="url(#mask0_12638_17474)">
<path d="M25.9538 9.41149C23.9785 10.5746 23.3785 10.6669 21.2277 11.9592C22.4831 10.6023 22.9169 10.03 23.6831 8.89457C21.7077 8.9961 18.8277 9.23611 16.7692 9.68841C18.56 8.73764 22.1046 7.66688 23.9692 7.41764C23.5354 6.81764 20.0277 4.91611 19.1508 4.54688C21.9292 4.75918 25.3262 5.80226 26.9785 6.80841C27.6246 6.60534 28.2985 6.5961 29.5077 6.48534C29.2031 7.01149 29.1846 7.3161 28.0031 8.10072C28.3354 8.97764 27.5508 13.7961 26.9046 15.0792C26.8769 13.0576 26.7015 10.51 25.9538 9.40226" fill="white"/>
<path d="M11.4892 26.7104C10.3539 26.2858 9.54154 25.7965 8.63693 24.9565C8.90462 24.2089 9.20924 23.6365 9.71693 22.8889C8.79385 23.0273 8.11078 23.1289 7.31693 23.2858C6.67078 22.1504 6.37539 21.0612 6.04308 19.5381C5.8677 21.1535 5.80308 22.2981 6.02462 23.5812C5.29539 23.7842 4.77847 23.9596 4.17847 24.2273C5.01847 24.7442 5.70154 25.1412 6.63385 25.575C7.14154 26.655 7.65847 27.3842 8.5077 28.2242C8.31385 27.5135 8.25847 26.9504 8.34154 26.2027C9.39385 26.5073 10.2892 26.6735 11.48 26.7012" fill="white"/>
<path d="M14.4431 10.6762C14.0923 11.1378 13.6769 11.987 13.5662 12.3839C16.4923 12.7808 18.8369 14.2855 18.8369 14.2855C16.28 13.8331 14.9323 13.8885 13.9815 13.9716C13.0308 14.0639 12.8369 14.1747 12.8369 14.1747C12.1446 15.6885 11.7292 18.2824 11.7292 18.2824C11.2677 17.1562 10.5938 14.9131 10.5938 14.9131C9.30154 15.6055 6.33846 18.3931 6.33846 18.3931C7.97231 15.1255 9.62462 13.6393 9.62462 13.6393C9.05231 13.0578 7.55692 12.7716 6.46769 12.7255C7.03077 12.4947 8.48923 12.227 9.60616 12.1716C10.7231 12.1439 11.4062 12.1993 11.4062 12.1993C12.4031 11.4147 13.9169 10.7501 14.4431 10.667" fill="white"/>
<path d="M17.5446 24.6887C17.0277 25.3902 16.5846 25.9349 16.0123 26.581C15.0246 26.8579 14.24 26.9595 13.28 26.9595C13.8708 27.2641 14.4431 27.4487 15.0523 27.5779C14.4339 28.1318 13.9169 28.5287 13.3169 28.9072C14.3139 28.6672 15.6339 28.2426 16.6123 27.6702C17.12 27.6887 17.6 27.661 17.9508 27.5872C17.8585 27.2918 17.8031 27.0702 17.7292 26.6826C18.6523 25.9718 19.3169 25.3256 20.0831 24.541C19.2708 25.1133 18.56 25.5379 17.6185 25.981C17.5815 25.5472 17.5539 25.1779 17.5354 24.6887" fill="white"/>
<path d="M41.0277 5.89451C41.1108 7.06682 41.1754 10.0114 41.1754 11.0914C41.1754 12.0791 41.1662 15.393 41.0092 16.8237L40.9908 16.9437H46.1785C48.7077 16.9437 51.4216 16.1407 51.4216 13.8884C51.4216 12.4668 50.3969 11.4237 48.4769 10.8514C49.88 10.4822 50.84 9.49451 50.84 8.37759C50.84 6.54066 48.7169 5.83912 46.7323 5.79297H41.0092V5.90374L41.0277 5.89451ZM45.0339 7.02989C47.2031 7.02989 48.0062 7.4822 48.0062 8.66374C48.0062 8.97758 47.9139 9.25451 47.72 9.48528C47.3046 9.98374 46.4831 10.233 45.4585 10.1868H45.4123L44.8123 11.756H45.4123C46.6031 11.7191 47.6462 12.0976 48.1723 12.7437C48.4216 13.0484 48.5416 13.3899 48.5416 13.7499C48.5416 14.996 47.4616 15.6237 45.32 15.6237C44.96 15.6237 44.3785 15.6237 44.0092 15.596C43.9354 13.9622 43.9262 11.7376 43.9262 11.0822C43.9262 10.3068 43.9631 8.5622 44.0092 7.08528C44.2492 7.03912 44.6554 7.01143 45.0339 7.01143" fill="black"/>
<path d="M63.3846 5.7832H60.8646L60.9662 8.58936C61.0123 9.99243 61.0585 11.4232 61.1508 12.7986C60.9754 12.374 60.8369 12.1432 60.0892 11.0355C60.0615 10.9986 57.4492 6.95551 56.5354 5.81089L56.5077 5.7832H53.5723V5.89397C53.6646 7.06628 53.7292 10.0109 53.7292 11.0909C53.7292 12.0786 53.7292 15.3924 53.5723 16.8324V16.9524H56.1662V16.8417C56.0092 14.1094 56.0092 11.3586 56.0092 8.70013C56.1015 9.01397 56.2215 9.30013 56.6369 9.90936C56.6831 9.97397 61.16 16.5094 61.3815 16.9063L61.4092 16.9524H63.5046L63.4862 16.8324C63.3385 15.4017 63.32 12.0786 63.32 11.0909C63.32 10.0017 63.3846 7.05705 63.4677 5.89397V5.7832H63.3846Z" fill="black"/>
<path d="M66.4215 5.88518C66.5046 7.06672 66.5692 10.0021 66.5692 11.0913C66.5692 12.079 66.56 15.3929 66.4031 16.8236V16.9344H69.5046V16.8236C69.3846 15.799 69.3477 13.8421 69.3292 12.3283C69.4585 12.3283 69.9015 12.356 69.9015 12.356L70.3354 12.3744C74.4246 12.3744 76.4185 11.276 76.4185 9.01441C76.4185 6.4298 73.6308 5.8298 71.2954 5.77441H66.4215V5.88518ZM70.2246 7.12211C71.6739 7.09441 72.6985 7.39903 73.1877 7.99903C73.4092 8.27595 73.52 8.61749 73.52 9.01441C73.52 10.6298 71.7108 10.9713 70.1969 10.9713L69.5785 10.9529C69.5785 10.9529 69.4308 10.9344 69.3292 10.916C69.3292 10.5467 69.32 10.0667 69.32 9.50364C69.32 8.79287 69.3292 7.97133 69.3569 7.19595C69.5508 7.15903 69.8923 7.13134 70.2246 7.12211Z" fill="black"/>
<path d="M82.3446 5.88518C82.4277 7.06672 82.4923 10.0021 82.4923 11.0913C82.4923 12.079 82.4831 15.3929 82.3262 16.8236V16.9344H85.4277L85.4092 16.8236C85.3077 15.799 85.2615 13.8421 85.2523 12.3283C85.3815 12.3283 85.8154 12.356 85.8154 12.356L86.2585 12.3744C90.3477 12.3744 92.3415 11.276 92.3415 9.01441C92.3415 6.4298 89.5538 5.8298 87.2092 5.77441H82.3354V5.88518H82.3446ZM86.1569 7.12211C87.6154 7.09441 88.6308 7.39903 89.1292 7.99903C89.3508 8.27595 89.4615 8.61749 89.4615 9.01441C89.4615 10.6298 87.6523 10.9713 86.1292 10.9713L85.5108 10.9529C85.5108 10.9529 85.3631 10.9344 85.2708 10.916C85.2615 10.5467 85.2523 10.0575 85.2523 9.49441C85.2523 8.78364 85.2708 7.97133 85.2985 7.19595C85.4923 7.15903 85.8246 7.13134 86.1569 7.12211Z" fill="black"/>
<path d="M96.5139 5.78364H96.4585L96.44 5.83903C95.8585 7.42672 92.1477 15.5406 91.5662 16.7867L91.4923 16.9344H94.16L94.1785 16.8698C94.4092 16.1036 94.7046 15.2452 95.0646 14.3129C95.1569 14.3129 97.2615 14.276 97.2615 14.276L99.08 14.2944C99.08 14.2944 99.4031 14.3036 99.4769 14.3036C99.9569 15.5036 100.317 16.4175 100.474 16.8698L100.492 16.9344H103.575L98.6092 5.77441H96.5231L96.5139 5.78364ZM97.2615 9.0698C97.5108 9.59595 98.1477 11.0913 98.8677 12.8544C98.7569 12.8544 98.6277 12.8544 98.6277 12.8544L97.2615 12.8729C97.2615 12.8729 95.8492 12.8452 95.6277 12.8452C96.2092 11.4329 96.7723 10.1498 97.2615 9.0698Z" fill="black"/>
<path d="M104.794 5.88518C104.877 7.05749 104.942 10.0021 104.942 11.0821C104.942 12.0698 104.932 15.3836 104.775 16.8144V16.9344H107.868V16.8144C107.702 15.3744 107.692 12.0606 107.692 11.0729C107.692 10.2975 107.729 8.55287 107.785 7.17749C108.043 7.1498 108.385 7.11287 108.625 7.11287C110.074 7.08518 111.108 7.3898 111.588 7.9898C111.809 8.26672 111.929 8.59903 111.929 9.00518C111.929 10.2883 110.711 10.9436 109.594 11.0083C109.225 11.0267 108.938 10.9713 108.938 10.9713L108.726 10.9344L108.865 11.1375C109.954 12.7529 111.606 15.559 112.308 16.8883L112.335 16.9344H115.668L115.566 16.7683C115.455 16.5836 113.268 13.3898 112.345 12.0236C112.345 12.0236 112.308 11.9775 112.289 11.9406C113.978 11.4329 114.818 10.4729 114.818 9.00518C114.818 6.42057 112.022 5.82057 109.686 5.77441H104.812L104.822 5.87595L104.794 5.88518Z" fill="black"/>
<path d="M120.062 5.77441H117.08V5.88518C117.182 7.06672 117.237 10.0113 117.237 11.0913C117.237 12.079 117.228 15.3929 117.071 16.8236V16.9344H120.163V16.8236C119.997 15.3836 119.988 12.0698 119.988 11.0913C119.988 10.0113 120.052 7.06672 120.135 5.88518V5.77441H120.062Z" fill="black"/>
<path d="M122.969 5.89397C123.052 7.06628 123.117 10.0109 123.117 11.0909C123.117 12.0786 123.108 15.3924 122.951 16.8232V16.9432H128.129C130.668 16.9432 133.372 16.1401 133.372 13.8786C133.372 12.457 132.348 11.414 130.428 10.8417C131.84 10.4724 132.8 9.48474 132.8 8.36782C132.8 6.53089 130.686 5.82936 128.692 5.7832H122.969L122.978 5.89397H122.969ZM126.975 7.02936C129.135 7.02936 129.948 7.48166 129.948 8.6632C129.948 8.97705 129.846 9.25397 129.652 9.48474C129.246 9.9832 128.415 10.2324 127.391 10.1863H127.335L126.745 11.7555H127.354C128.554 11.7186 129.578 12.0971 130.114 12.7432C130.363 13.0478 130.483 13.3894 130.483 13.7494C130.483 14.9955 129.403 15.6232 127.271 15.6232C126.911 15.6232 126.32 15.6232 125.951 15.5955C125.877 13.9617 125.877 11.7371 125.877 11.0817C125.877 10.2971 125.914 8.56166 125.969 7.08474C126.2 7.03859 126.615 7.0109 126.985 7.0109" fill="black"/>
<path d="M141.006 5.77486H138.92L138.902 5.83947C138.292 7.5287 134.351 16.0856 134.028 16.7872L133.954 16.9349H136.622L136.64 16.8702C136.871 16.1041 137.166 15.2456 137.517 14.3133C137.609 14.3133 139.714 14.2764 139.714 14.2764L141.532 14.3041C141.532 14.3041 141.846 14.3041 141.929 14.3041C142.409 15.5041 142.76 16.4087 142.917 16.8702L142.935 16.9256H146.018L141.052 5.76562H141.006V5.77486ZM139.723 9.06101C139.972 9.58716 140.609 11.0825 141.329 12.8364C141.218 12.8364 141.098 12.8456 141.098 12.8456L139.723 12.8641C139.723 12.8641 138.311 12.8364 138.089 12.8364C138.662 11.4149 139.234 10.141 139.723 9.06101Z" fill="black"/>
<path d="M146.886 8.67341C146.886 10.6396 148.862 11.4334 150.606 12.1349C151.963 12.6796 153.357 13.2519 153.357 14.1842C153.357 14.4703 153.292 14.6919 153.145 14.8673C152.822 15.2549 152.157 15.4119 151.105 15.3657C150.08 15.3196 148.908 14.9873 147.606 14.378L147.062 14.1288V14.5626V16.5657L147.412 16.6396L147.625 16.6857C148.28 16.8426 149.517 17.138 150.772 17.138C154.049 17.138 156.006 15.8365 156.006 13.6765C156.006 11.6642 153.985 10.8611 152.203 10.1503C150.883 9.62417 149.526 9.07956 149.526 8.23033C149.526 7.9811 149.526 7.23341 151.215 7.23341C152.471 7.23341 153.708 7.75033 154.372 8.01802L155.009 8.28571V7.8611V5.83033L154.372 5.71956C153.745 5.59956 152.683 5.39648 151.585 5.39648C148.769 5.39648 146.877 6.71648 146.877 8.67341" fill="black"/>
<path d="M41 28.4824C41.12 27.1808 41.12 24.7439 41.12 24.0147C41.12 23.2116 41.0923 20.9131 41.0277 19.9531H47.5815V21.347C46.6031 21.2362 45.7077 21.2362 44.9785 21.2362C44.7754 21.2362 43.7969 21.2362 43.5569 21.2547C43.5292 21.67 43.5108 22.2793 43.5108 22.8054C43.5108 23.1008 43.5108 23.3593 43.5292 23.5808L46.2892 23.5162V24.8454H43.5292C43.5477 26.0547 43.5477 27.5408 43.6862 28.4731H41.0092L41 28.4824Z" fill="black"/>
<path d="M47.7385 24.2362C47.7385 21.5409 49.6954 19.7686 52.3077 19.7686C54.92 19.7686 56.8677 21.5316 56.8677 24.2362C56.8677 26.9409 54.9015 28.667 52.3077 28.667C49.7138 28.667 47.7385 26.9039 47.7385 24.2362ZM54.3569 24.2362C54.3569 22.0393 53.5631 20.8578 52.3077 20.8578C51.0523 20.8578 50.2123 22.0393 50.2123 24.2362C50.2123 26.4332 51.0154 27.5501 52.3077 27.5501C53.6 27.5501 54.3569 26.4147 54.3569 24.2362Z" fill="black"/>
<path d="M57.8923 28.4829C58.0308 27.209 58.0585 25.7229 58.0585 24.006C58.0585 22.5752 58.04 20.8306 57.92 19.9629H61.7692C63.5969 19.9629 65.7846 20.6275 65.7846 22.6121C65.7846 23.6829 64.9169 24.5783 63.7723 24.9106C64.0862 25.4829 66.0339 28.0398 66.4585 28.4921H63.6708C62.9692 27.2644 61.8431 25.2521 61.0677 24.209C61.2431 24.2367 61.4277 24.2737 61.6123 24.2737C62.5446 24.2737 63.3939 23.7752 63.3939 22.6029C63.3939 21.4306 62.1846 21.1629 61.1139 21.1629C60.8923 21.1629 60.7077 21.1629 60.5231 21.1814C60.4769 22.2152 60.4585 23.4614 60.4585 24.0152C60.4585 24.7629 60.4585 27.1906 60.5969 28.4921H57.9015L57.8923 28.4829Z" fill="black"/>
<path d="M68.9415 28.4829C69.08 27.1814 69.1077 24.7352 69.1077 24.006C69.1077 23.1198 69.0892 22.1414 69.0431 21.2183C68.0831 21.2183 67.1323 21.2921 66.2831 21.4029V19.9629H74.2492V21.4214C73.4277 21.2829 72.3939 21.2183 71.5354 21.2183C71.4708 22.1137 71.4615 23.4614 71.4615 24.006C71.4615 24.7352 71.48 27.1814 71.6277 28.4829H68.9323H68.9415Z" fill="black"/>
<path d="M75.0431 28.4824C75.2 27.1808 75.2092 24.7439 75.2092 24.0147C75.2092 23.2116 75.1446 20.9131 75.0892 19.9531H77.7108C77.6462 20.9131 77.6 23.1931 77.6 24.0147C77.6 24.7716 77.6 27.3193 77.7108 28.4824H75.0431Z" fill="black"/>
<path d="M79.0954 28.1866V26.1743C80.4431 26.8389 81.4031 27.2266 82.3539 27.2266C83.3046 27.2266 83.8123 26.8573 83.8123 26.285C83.8123 24.8543 78.9754 24.9835 78.9754 22.2235C78.9754 20.7004 80.4154 19.7773 82.5754 19.7773C83.7662 19.7773 84.7631 19.9435 85.4 20.1373V22.1958C84.7446 21.6697 83.4431 21.2635 82.4738 21.2635C81.8092 21.2635 81.3108 21.4666 81.3108 21.9466C81.3108 23.405 86.1662 23.4789 86.1662 26.082C86.1662 27.7527 84.6338 28.6666 82.0769 28.6666C80.9138 28.6666 79.8431 28.445 79.1139 28.1866" fill="black"/>
</g>
</g>
<defs>
<clipPath id="clip0_12638_17474">
<rect width="164" height="34" fill="white"/>
</clipPath>
</defs>
</svg>
